<?xml version="1.0" encoding="utf-8"?>
<!-- Generator: Adobe Illustrator 21.1.0, SVG Export Plug-In . SVG Version: 6.00 Build 0)  -->
<svg version="1.1" id="Layer_1" xmlns="http://www.w3.org/2000/svg" xmlns:xlink="http://www.w3.org/1999/xlink" x="0px" y="0px"
	 viewBox="0 0 755 209" style="enable-background:new 0 0 755 209;" xml:space="preserve">
<g>
	<path d="M64,208.4c-39,0-60.1-16.3-63.3-48.9h10.8c2.2,26,19.3,39,51.3,39c19.4,0,33.1-3.9,41.1-11.9c8-7.9,12-21.2,12-40.1V2.9
		h10.8v145.5C126.7,188.4,105.8,208.4,64,208.4z"/>
	<path d="M153,206.2l-12.6,0L234.1,2.9h11.1l90,203.4l-11.8,0 M239.7,17.9L157,195h161L239.7,17.9z"/>
	<path d="M527.8,43.7c-14.8-22-39.4-33-73.8-33c-29.4,0-52.9,8.5-70.3,25.5c-17.5,17-26.2,39.9-26.2,68.7c0,28.6,8.4,51.4,25.2,68.2
		c16.8,16.9,39.5,25.4,68.1,25.4c33,0,57.8-11.2,74.4-33.6l9.3,6c-18.8,25-46.6,37.5-83.4,37.5c-32.2,0-57.7-9.2-76.3-27.6
		c-18.7-18.4-28-43.3-28-74.7c0-32.2,9.6-57.8,29-76.8C394.8,10.3,421,0.8,454,0.8c38.2,0,65.8,12.3,82.8,36.9L527.8,43.7z"/>
	<path d="M564.1,206.3V2.9h10.8v203.4H564.1z"/>
	<path d="M676.6,12.8v193.5h-10.8V12.8h-78V2.9h166.5v9.9H676.6z"/>
</g>
</svg>
