<svg width="754" height="208" viewBox="0 0 754 208" version="1.1" xmlns="http://www.w3.org/2000/svg" xmlns:xlink="http://www.w3.org/1999/xlink">
<title>jacit-logo</title>
<desc>Created using Figma</desc>
<g id="Canvas" transform="translate(706 269)">
<g id="jacit-logo">
<g id="Group">
<g id="Vector">
<use xlink:href="#path0_fill" transform="translate(-706 -266.9)" fill="#FFFFFF"/>
</g>
<g id="Vector">
<use xlink:href="#path1_fill" transform="translate(-566.3 -266.9)" fill="#FFFFFF"/>
</g>
<g id="Vector">
<use xlink:href="#path2_fill" transform="translate(-359.9 -269)" fill="#FFFFFF"/>
</g>
<g id="Vector">
<use xlink:href="#path3_fill" transform="translate(-142.6 -266.9)" fill="#FFFFFF"/>
</g>
<g id="Vector">
<use xlink:href="#path4_fill" transform="translate(-118.9 -266.9)" fill="#FFFFFF"/>
</g>
</g>
</g>
</g>
<defs>
<path id="path0_fill" d="M 63.3 205.5C 24.3 205.5 3.2 189.2 -1.19209e-08 156.6L 10.8 156.6C 13 182.6 30.1 195.6 62.1 195.6C 81.5 195.6 95.2 191.7 103.2 183.7C 111.2 175.8 115.2 162.5 115.2 143.6L 115.2 9.53674e-08L 126 9.53674e-08L 126 145.5C 126 185.5 105.1 205.5 63.3 205.5Z"/>
<path id="path1_fill" d="M 12.6 203.3L -6.10352e-06 203.3L 93.7 9.53674e-08L 104.8 9.53674e-08L 194.8 203.4L 183 203.4L 12.6 203.3ZM 99.3 15L 16.6 192.1L 177.6 192.1L 99.3 15Z"/>
<path id="path2_fill" d="M 181 42.9C 166.2 20.9 141.6 9.9 107.2 9.9C 77.8 9.9 54.3 18.4 36.9 35.4C 19.4 52.4 10.7 75.3 10.7 104.1C 10.7 132.7 19.1 155.5 35.9 172.3C 52.7 189.2 75.4 197.7 104 197.7C 137 197.7 161.8 186.5 178.4 164.1L 187.7 170.1C 168.9 195.1 141.1 207.6 104.3 207.6C 72.1 207.6 46.6 198.4 28 180C 9.29999 161.6 -1.2207e-05 136.7 -1.2207e-05 105.3C -1.2207e-05 73.1 9.59999 47.5 29 28.5C 48 9.5 74.2 1.19209e-08 107.2 1.19209e-08C 145.4 1.19209e-08 173 12.3 190 36.9L 181 42.9Z"/>
<path id="path3_fill" d="M -2.44141e-05 203.4L -2.44141e-05 9.53674e-08L 10.8 9.53674e-08L 10.8 203.4L -2.44141e-05 203.4Z"/>
<path id="path4_fill" d="M 88.8 9.9L 88.8 203.4L 78 203.4L 78 9.9L -1.2207e-05 9.9L -1.2207e-05 9.53674e-08L 166.5 9.53674e-08L 166.5 9.9L 88.8 9.9Z"/>
</defs>
</svg>
